<?xml version="1.0" encoding="utf-8"?>
<!-- Generator: Adobe Illustrator 26.5.0, SVG Export Plug-In . SVG Version: 6.00 Build 0)  -->
<svg version="1.1" id="mdi-cards" xmlns="http://www.w3.org/2000/svg" xmlns:xlink="http://www.w3.org/1999/xlink" x="0px" y="0px"
	 viewBox="0 0 24 24" style="enable-background:new 0 0 24 24;" xml:space="preserve">
<style type="text/css">
	.st0{stroke:#FFFFFF;stroke-miterlimit:10;}
</style>
<path class="st0" d="M21.5,4.3l-1.3-0.6v9L22.6,7C23,5.9,22.5,4.8,21.5,4.3 M2,8.1l5,11.9c0.3,0.8,1,1.2,1.8,1.3
	c0.3,0,0.5-0.1,0.8-0.2l7.4-3.1c0.8-0.3,1.2-1,1.2-1.8c0-0.3,0-0.6-0.1-0.8L13,3.5c-0.3-0.8-1-1.2-1.8-1.2c-0.3,0-0.5,0.1-0.8,0.2
	l-7.4,3C2,5.9,1.5,7,2,8.1 M18.1,4.2c0-1.1-0.9-2-2-2h-1.5l3.5,8.3"/>
</svg>
